# xmcd
#
# Track frame offsets: 
#        182
#        16712
#        31462
#        46822
#        61207
#        74205
#        89032
#        103657
#        117892
#        134352
#        148617
#        165007
#        179890
#
# Disc length: 2580 seconds
#
# Revision: 2
# Processed by: cddbd v1.5.2PL0 Copyright (c) Steve Scherf et al.
# Submitted via: ExactAudioCopy v0.99pb4
#
DISCID=b70a120d
DTITLE=Simone Christ - Irgendwann bestimmt
DYEAR=2002
DGENRE=Deutsche Titel
TTITLE0=Irgendwann bestimmt
TTITLE1=1000 kleine Feuer
TTITLE2=Es war ein Sommer zum verlieben
TTITLE3=Sand auf der Haut
TTITLE4=Du ich steh' zu Dir
TTITLE5=Freche Mädchen
TTITLE6=Pfefferminzgefühl
TTITLE7=Ibiza
TTITLE8=Soweit die Träume tragen
TTITLE9=Ich bin so wie ich bin
TTITLE10=Wenn Du mich küsst
TTITLE11=Ich will heut tanzen geh'n
TTITLE12=Ich bin heut so glücklich
EXTD=
EXTT0=
EXTT1=
EXTT2=
EXTT3=
EXTT4=
EXTT5=
EXTT6=
EXTT7=
EXTT8=
EXTT9=
EXTT10=
EXTT11=
EXTT12=
PLAYORDER=
